<svg xmlns="http://www.w3.org/2000/svg" viewBox="0 0 1600 900"><defs><linearGradient id="g" x2="0" y2="1"><stop stop-color="#10254d"/><stop offset="1" stop-color="#050814"/></linearGradient><radialGradient id="gl"><stop stop-color="#2c7bd9" stop-opacity=".55"/><stop offset="1" stop-color="#000" stop-opacity="0"/></radialGradient></defs><rect width="1600" height="900" fill="url(#g)"/><ellipse cx="800" cy="650" rx="700" ry="320" fill="#7b431f" stroke="#d29a4a" stroke-width="18"/><ellipse cx="800" cy="650" rx="610" ry="260" fill="#3e2115" opacity=".65"/><path d="M300 650 Q800 500 1300 650 Q800 800 300 650Z" fill="#9b5b2c" opacity=".7"/><circle cx="800" cy="430" r="360" fill="url(#gl)"/><path d="M760 210v300M760 220l170 95-170 55z" fill="#eee" stroke="#bda66a" stroke-width="8"/><path d="M760 220L620 310l140 20z" fill="#eee" stroke="#bda66a" stroke-width="8"/><path d="M720 515h80l-20 70h-40z" fill="#5b321e"/><g fill="#c9943d"><circle cx="300" cy="560" r="18"/><circle cx="1280" cy="560" r="18"/><circle cx="420" cy="720" r="14"/><circle cx="1180" cy="720" r="14"/></g><text x="800" y="105" fill="#f7d78a" font-size="56" text-anchor="middle" font-family="Georgia,serif" font-weight="700">MAPA PIRATA</text></svg>